# xmcd CD database file
#
# Track frame offsets:
#	150
#	13377
#	29217
#	45250
#	59465
#	79442
#	93195
#	107607
#	122182
#	138977
#
# Disc length: 2045 seconds
#
# Revision: 2
# Processed by: cddbd v1.4PL0 Copyright (c) Steve Scherf et al.
# Submitted via: CDex 1.50
#
DISCID=8807fb0a
DTITLE=Hal Ketchum - Past the Point of Rescue
DYEAR=1991
DGENRE=Country
TTITLE0=Small Town Saturday Night
TTITLE1=I Know Where Love Lives
TTITLE2=Old Soldiers
TTITLE3=Somebody's Love
TTITLE4=Past The Point Of Rescue
TTITLE5=Five O'Clock World
TTITLE6=I Miss My Mary
TTITLE7=Don't Strike A Match (To The Book Of Love)
TTITLE8=Long Day Comin'
TTITLE9=She Found The Place
EXTD=YEAR: 1991
EXTT0=
EXTT1=
EXTT2=
EXTT3=
EXTT4=
EXTT5=
EXTT6=
EXTT7=
EXTT8=
EXTT9=
PLAYORDER=
